<svg width="751" height="922" viewBox="0 0 751 922" fill="none" xmlns="http://www.w3.org/2000/svg">
<path d="M264.856 836.88H287.676C294.209 836.88 297.476 839.96 297.476 846.12V849.62C297.476 851.206 296.729 852 295.236 852H250.296C249.083 852 248.476 851.393 248.476 850.18V775.98C248.476 774.766 249.083 774.16 250.296 774.16H286.556C293.089 774.16 296.356 777.286 296.356 783.54V787.04C296.356 788.626 295.609 789.42 294.116 789.42H264.856V805.24H283.756C290.289 805.24 293.556 808.366 293.556 814.62V818.12C293.556 819.613 292.809 820.36 291.316 820.36H264.856V836.88ZM324.055 804.96V850.18C324.055 851.393 323.448 852 322.235 852H309.495C308.282 852 307.675 851.393 307.675 850.18V775.98C307.675 774.766 308.282 774.16 309.495 774.16H315.095C318.175 774.16 320.648 774.72 322.515 775.84C324.382 776.866 326.155 778.733 327.835 781.44L352.475 821.48V775.98C352.475 774.766 353.082 774.16 354.295 774.16H355.695C360.082 774.16 363.348 775.233 365.495 777.38C367.735 779.433 368.855 783.073 368.855 788.3V850.18C368.855 851.393 368.248 852 367.035 852H354.995C353.688 852 352.662 851.393 351.915 850.18L324.055 804.96ZM399.104 834.08L393.644 850.18C393.271 851.393 392.571 852 391.544 852H378.384C377.824 852 377.451 851.813 377.264 851.44C377.077 850.973 377.031 850.553 377.124 850.18L403.164 775.7C403.537 774.673 404.237 774.16 405.264 774.16H411.424C415.344 774.16 418.377 775 420.524 776.68C422.764 778.36 424.771 781.72 426.544 786.76L449.224 850.18C449.411 850.553 449.364 850.973 449.084 851.44C448.897 851.813 448.477 852 447.824 852H434.384C433.077 852 432.191 851.393 431.724 850.18L426.264 834.08H399.104ZM404.004 820.08H421.504L412.684 793.9L404.004 820.08ZM473.762 821.06V850.18C473.762 851.393 473.156 852 471.942 852H459.202C457.989 852 457.382 851.393 457.382 850.18V775.98C457.382 774.766 457.989 774.16 459.202 774.16H495.462C501.996 774.16 505.262 777.286 505.262 783.54V787.04C505.262 788.626 504.516 789.42 503.022 789.42H473.762V805.94H492.102C498.636 805.94 501.902 809.066 501.902 815.32V818.68C501.902 820.266 501.156 821.06 499.662 821.06H473.762Z" fill="#6E5D5D"/>
<path d="M351.089 216.618L342.766 208.52C338.769 204.631 338.725 198.225 342.669 194.282L449.929 87.0215C453.834 83.1163 460.166 83.1163 464.071 87.0215L580.929 203.879C584.834 207.785 584.834 214.116 580.929 218.021L495.571 303.379C489.271 309.679 478.5 305.217 478.5 296.308V244.093C478.5 241.44 479.554 238.897 481.429 237.022L500.429 218.021C504.334 214.116 504.334 207.785 500.429 203.879L464.071 167.522C460.166 163.616 453.834 163.616 449.929 167.521L400.929 216.521C399.054 218.397 396.51 219.45 393.858 219.45H358.062C355.457 219.45 352.955 218.434 351.089 216.618Z" fill="#6E5D5D"/>
<path d="M127.571 262.521L185.429 320.379C189.334 324.285 189.334 330.616 185.429 334.521L154 365.95L127.571 339.522C123.666 335.616 117.334 335.616 113.429 339.522L84.0711 368.879C80.1658 372.785 80.1658 379.116 84.0711 383.022L113.429 412.379C117.334 416.285 123.666 416.285 127.571 412.379L195.429 344.522C199.334 340.616 205.666 340.616 209.571 344.522L233.929 368.879C237.834 372.785 237.834 379.116 233.929 383.022L127.571 489.379C123.666 493.285 117.334 493.285 113.429 489.379L7.07107 383.022C3.16582 379.116 3.16583 372.785 7.07108 368.879L113.429 262.521C117.334 258.616 123.666 258.616 127.571 262.521Z" fill="#6E5D5D"/>
<path d="M399.411 534.283L407.734 542.381C411.731 546.269 411.775 552.676 407.831 556.619L300.571 663.879C296.666 667.785 290.334 667.785 286.429 663.879L169.571 547.022C165.666 543.116 165.666 536.785 169.571 532.879L254.929 447.522C261.229 441.222 272 445.684 272 454.593V506.808C272 509.46 270.946 512.004 269.071 513.879L250.071 532.879C246.166 536.785 246.166 543.116 250.071 547.022L286.429 583.379C290.334 587.285 296.666 587.285 300.571 583.379L349.571 534.379C351.446 532.504 353.99 531.45 356.642 531.45H392.438C395.043 531.45 397.545 532.467 399.411 534.283Z" fill="#6E5D5D"/>
<path d="M622.929 488.379L565.071 430.522C561.166 426.616 561.166 420.285 565.071 416.379L596.5 384.95L622.929 411.379C626.834 415.285 633.166 415.285 637.071 411.379L666.429 382.022C670.334 378.116 670.334 371.785 666.429 367.879L637.071 338.522C633.166 334.616 626.834 334.616 622.929 338.522L555.071 406.379C551.166 410.285 544.834 410.285 540.929 406.379L516.571 382.022C512.666 378.116 512.666 371.785 516.571 367.879L622.929 261.522C626.834 257.616 633.166 257.616 637.071 261.522L743.429 367.879C747.334 371.785 747.334 378.116 743.429 382.022L637.071 488.379C633.166 492.285 626.834 492.285 622.929 488.379Z" fill="#6E5D5D"/>
<path d="M348.874 37.1229L373.623 12.3741C374.599 11.3978 376.182 11.3978 377.159 12.3741L401.907 37.1229C402.884 38.0992 402.884 39.6821 401.907 40.6584L377.159 65.4071C376.182 66.3834 374.599 66.3834 373.623 65.4071L348.874 40.6584C347.898 39.6821 347.898 38.0992 348.874 37.1229Z" stroke="#6E5D5D" stroke-width="15"/>
<path d="M348.874 711.573L373.623 686.825C374.599 685.848 376.182 685.848 377.159 686.825L401.907 711.573C402.884 712.55 402.884 714.133 401.907 715.109L377.159 739.858C376.182 740.834 374.599 740.834 373.623 739.858L348.874 715.109C347.898 714.133 347.898 712.55 348.874 711.573Z" stroke="#6E5D5D" stroke-width="15"/>
<path d="M300.571 88.0215L358.429 145.879C362.334 149.785 362.334 156.116 358.429 160.021L326.25 192.2L300.571 166.522C296.666 162.616 290.334 162.616 286.429 166.521L247.571 205.379C243.666 209.285 243.666 215.616 247.571 219.521L265.571 237.522C267.446 239.397 268.5 241.94 268.5 244.593V294.808C268.5 303.717 257.729 308.179 251.429 301.879L169.071 219.522C165.166 215.616 165.166 209.285 169.071 205.379L286.429 88.0215C290.334 84.1163 296.666 84.1163 300.571 88.0215Z" fill="#6E5D5D"/>
<path d="M449.429 664.379L391.571 606.522C387.666 602.616 387.666 596.285 391.571 592.379L423.75 560.2L449.429 585.879C453.334 589.785 459.666 589.785 463.571 585.879L502.429 547.022C506.334 543.116 506.334 536.785 502.429 532.879L484.429 514.879C482.554 513.004 481.5 510.46 481.5 507.808V457.593C481.5 448.684 492.271 444.222 498.571 450.522L580.929 532.879C584.834 536.785 584.834 543.116 580.929 547.021L463.571 664.379C459.666 668.285 453.334 668.285 449.429 664.379Z" fill="#6E5D5D"/>
<path d="M383.669 235.481C384.624 235.475 385.579 235.47 386.563 235.464C401.413 235.61 414.135 240.961 425.15 250.919C434.751 261.119 438.879 273.575 438.637 287.279C438.13 296.476 434.889 303.162 428.29 309.562C426.635 311.004 425.72 311.802 425.005 312.243C423.575 313.125 421.968 311.638 421.578 310.004C418.407 297.169 414.39 286.518 402.763 278.941C388.933 271.518 373.174 272.677 358.428 276.661C357.727 276.833 357.026 277.006 356.304 277.184C347.498 279.849 339.321 286.719 334.721 294.565C334.372 295.246 334.023 295.926 333.664 296.627C333.2 297.515 333.2 297.515 332.726 298.421C328.553 307.794 329.102 318.584 332.711 328.002C338.854 340.567 350.261 347.308 363.049 351.767C369.386 353.672 375.646 354.342 382.24 354.623C383.118 354.674 383.996 354.724 384.9 354.776C391.681 354.99 398.075 354.042 404.713 352.786C408.138 352.149 411.355 351.798 414.73 351.747C416.421 351.722 418.015 352.32 418.256 353.994C418.368 354.776 418.271 355.958 417.927 356.668C413.332 366.146 405.315 371.686 395.575 375.54C384.954 378.651 374.641 378.815 363.678 378.807C350.331 378.829 340.813 381.186 330.926 390.541C320.728 401.269 318.779 414.721 319.079 428.902C319.654 441.076 323.543 451.446 332.414 459.921C347.016 471.78 367.802 472.03 385.71 470.386C406.541 467.986 424.352 460.299 440.341 446.848C441.182 446.164 442.023 445.48 442.889 444.775C448.511 440.01 452.916 434.692 457.27 428.798C458.317 427.382 459.383 425.986 460.466 424.602C462.092 422.526 465.362 421.077 466.737 423.328C467.013 423.78 467.272 424.372 467.395 424.887C468.131 427.987 468.08 430.858 467.844 434.072C467.794 434.747 467.744 435.423 467.693 436.118C465.636 459.139 448.911 480.747 431.769 495.337C412.236 510.533 390.291 517.598 365.631 517.442C364.469 517.449 363.307 517.457 362.11 517.464C338.825 517.415 319.687 510.835 303.185 494.386C302.546 493.76 301.908 493.133 301.25 492.488C287.647 478.138 280.765 456.952 281.006 437.521C281.664 415.084 292.15 396.208 308.245 380.948C313.411 376.441 319.072 372.762 324.894 369.209C325.878 368.609 325.922 367.193 324.973 366.538C309.264 355.459 299.234 341.249 295.866 322.019C293.493 301.751 299.301 281.993 311.638 265.753C329.755 244.496 356.487 235.626 383.669 235.481Z" fill="#6E5D5D"/>
</svg>
