<svg width="499" height="753" viewBox="0 0 499 753" fill="none" xmlns="http://www.w3.org/2000/svg">
<path d="M273.966 0.0433868C276.515 0.0290691 279.064 0.0147515 281.691 0C321.315 0.389202 355.263 14.677 384.656 41.2683C410.278 68.5021 421.291 101.762 420.646 138.356C419.293 162.913 410.645 180.767 393.036 197.857C388.254 202.026 385.786 204.178 383.804 205.289C380.171 207.326 376.22 203.62 375.252 199.569C375.212 199.401 375.17 199.224 375.125 199.038C366.664 164.765 355.945 136.325 324.918 116.092C288.014 96.2697 245.961 99.3654 206.613 110.003C204.743 110.464 202.872 110.926 200.944 111.401C177.446 118.515 155.626 136.86 143.351 157.813C142.42 159.629 141.49 161.445 140.531 163.317C139.293 165.688 139.293 165.688 138.029 168.106C126.892 193.136 128.358 221.948 137.989 247.095C154.38 280.647 184.819 298.647 218.944 310.554C235.853 315.64 252.559 317.428 270.154 318.18C272.497 318.314 274.839 318.448 277.253 318.587C295.347 319.16 312.407 316.628 330.122 313.274C339.897 311.454 349.034 310.511 358.731 310.484C362.089 310.475 365.515 312.351 366.123 315.652C366.254 316.364 366.362 317.209 366.486 318.339C366.658 319.896 366.41 321.478 365.739 322.894C353.54 348.656 331.983 363.639 305.737 374.033C277.395 382.339 249.875 382.777 220.622 382.755C185.006 382.814 159.607 389.107 133.224 414.087C106.011 442.734 100.811 478.655 101.612 516.52C103.148 549.026 113.525 576.718 137.195 599.346C176.162 631.012 231.628 631.681 279.413 627.29C335 620.882 382.527 600.357 425.193 564.439C427.437 562.612 429.682 560.786 431.994 558.905C446.995 546.181 458.75 531.982 470.366 516.242C474.25 510.988 478.226 505.84 482.29 500.742C484.624 497.813 488.678 496.374 492.029 498.047C493.997 499.03 494.768 500.121 496.291 502.755C496.667 503.405 496.96 504.103 497.146 504.83C499.359 513.481 499.239 521.41 498.582 530.324C498.45 532.128 498.317 533.931 498.18 535.789C492.691 597.258 448.061 654.956 402.318 693.915C350.198 734.493 291.638 753.356 225.834 752.941C222.733 752.96 219.632 752.98 216.437 753C154.304 752.868 103.234 735.298 59.1991 691.376C57.4954 689.704 55.7918 688.031 54.0365 686.308C17.7376 647.99 -0.627859 591.42 0.0163802 539.533C1.7724 479.623 29.7537 429.22 72.7015 388.472C86.4873 376.438 101.592 366.615 117.129 357.127C119.756 355.523 119.872 351.743 117.339 349.994C75.4202 320.411 48.6565 282.468 39.6703 231.119C33.3374 176.998 48.8355 124.241 81.756 80.8767C130.1 24.1175 201.433 0.430888 273.966 0.0433868Z" fill="#6E5D5D"/>
</svg>
