<svg width="932" height="461" viewBox="0 0 932 461" fill="none" xmlns="http://www.w3.org/2000/svg">
<path d="M517.68 138.8C531.547 138.8 543.707 141.467 554.16 146.8C564.827 152.133 573.147 160.24 579.12 171.12C585.094 182 588.08 195.76 588.08 212.4V310H557.36V215.92C557.36 199.493 553.307 187.12 545.2 178.8C537.307 170.48 526.107 166.32 511.6 166.32C500.72 166.32 491.227 168.453 483.12 172.72C475.014 176.987 468.72 183.28 464.24 191.6C459.974 199.92 457.84 210.267 457.84 222.64V310H427.12V140.4H456.56V186.16L451.76 174C457.307 162.907 465.84 154.267 477.36 148.08C488.88 141.893 502.32 138.8 517.68 138.8ZM750.213 310V274.16L748.613 267.44V206.32C748.613 193.307 744.773 183.28 737.093 176.24C729.626 168.987 718.319 165.36 703.173 165.36C693.146 165.36 683.333 167.067 673.733 170.48C664.133 173.68 656.026 178.053 649.413 183.6L636.613 160.56C645.359 153.52 655.813 148.187 667.973 144.56C680.346 140.72 693.253 138.8 706.693 138.8C729.946 138.8 747.866 144.453 760.453 155.76C773.039 167.067 779.333 184.347 779.333 207.6V310H750.213ZM694.533 311.92C681.946 311.92 670.853 309.787 661.253 305.52C651.866 301.253 644.613 295.387 639.493 287.92C634.373 280.24 631.813 271.6 631.813 262C631.813 252.827 633.946 244.507 638.213 237.04C642.693 229.573 649.839 223.6 659.653 219.12C669.679 214.64 683.119 212.4 699.973 212.4H753.733V234.48H701.253C685.893 234.48 675.546 237.04 670.213 242.16C664.879 247.28 662.213 253.467 662.213 260.72C662.213 269.04 665.519 275.76 672.133 280.88C678.746 285.787 687.919 288.24 699.653 288.24C711.173 288.24 721.199 285.68 729.733 280.56C738.479 275.44 744.773 267.973 748.613 258.16L754.693 279.28C750.639 289.307 743.493 297.307 733.253 303.28C723.013 309.04 710.106 311.92 694.533 311.92ZM840.663 310V125.36C840.663 108.72 845.463 95.4933 855.063 85.68C864.876 75.6533 878.743 70.64 896.663 70.64C903.276 70.64 909.569 71.4933 915.543 73.2C921.729 74.6933 926.956 77.1467 931.223 80.56L921.943 103.92C918.743 101.36 915.116 99.44 911.063 98.16C907.009 96.6667 902.743 95.92 898.263 95.92C889.303 95.92 882.476 98.48 877.783 103.6C873.089 108.507 870.743 115.867 870.743 125.68V148.4L871.383 162.48V310H840.663ZM811.863 165.68V140.4H920.023V165.68H811.863Z" fill="#6E5D5D"/>
<path d="M411.87 378.3C411.87 372.669 413.128 367.64 415.642 363.212C418.212 358.729 421.683 355.258 426.056 352.798C430.484 350.283 435.432 349.026 440.898 349.026C447.294 349.026 452.898 350.666 457.708 353.946C462.519 357.226 465.881 361.763 467.794 367.558H454.592C453.28 364.825 451.422 362.775 449.016 361.408C446.666 360.041 443.932 359.358 440.816 359.358C437.482 359.358 434.502 360.151 431.878 361.736C429.309 363.267 427.286 365.453 425.81 368.296C424.389 371.139 423.678 374.473 423.678 378.3C423.678 382.072 424.389 385.407 425.81 388.304C427.286 391.147 429.309 393.361 431.878 394.946C434.502 396.477 437.482 397.242 440.816 397.242C443.932 397.242 446.666 396.559 449.016 395.192C451.422 393.771 453.28 391.693 454.592 388.96H467.794C465.881 394.809 462.519 399.374 457.708 402.654C452.952 405.879 447.349 407.492 440.898 407.492C435.432 407.492 430.484 406.262 426.056 403.802C421.683 401.287 418.212 397.816 415.642 393.388C413.128 388.96 411.87 383.931 411.87 378.3ZM504.168 407.574C498.81 407.574 493.89 406.317 489.408 403.802C484.925 401.287 481.372 397.816 478.748 393.388C476.124 388.905 474.812 383.849 474.812 378.218C474.812 372.642 476.124 367.64 478.748 363.212C481.372 358.729 484.925 355.231 489.408 352.716C493.89 350.201 498.81 348.944 504.168 348.944C509.58 348.944 514.5 350.201 518.928 352.716C523.41 355.231 526.936 358.729 529.506 363.212C532.13 367.64 533.442 372.642 533.442 378.218C533.442 383.849 532.13 388.905 529.506 393.388C526.936 397.816 523.41 401.287 518.928 403.802C514.445 406.317 509.525 407.574 504.168 407.574ZM504.168 397.324C507.612 397.324 510.646 396.559 513.27 395.028C515.894 393.443 517.944 391.201 519.42 388.304C520.896 385.407 521.634 382.045 521.634 378.218C521.634 374.391 520.896 371.057 519.42 368.214C517.944 365.317 515.894 363.103 513.27 361.572C510.646 360.041 507.612 359.276 504.168 359.276C500.724 359.276 497.662 360.041 494.984 361.572C492.36 363.103 490.31 365.317 488.834 368.214C487.358 371.057 486.62 374.391 486.62 378.218C486.62 382.045 487.358 385.407 488.834 388.304C490.31 391.201 492.36 393.443 494.984 395.028C497.662 396.559 500.724 397.324 504.168 397.324ZM553.462 397.898H572.322V407H541.982V349.764H553.462V397.898ZM591.099 397.898H609.959V407H579.619V349.764H591.099V397.898ZM628.736 359.03V373.38H648.006V382.482H628.736V397.652H650.466V407H617.256V349.682H650.466V359.03H628.736ZM658.11 378.3C658.11 372.669 659.368 367.64 661.882 363.212C664.452 358.729 667.923 355.258 672.296 352.798C676.724 350.283 681.672 349.026 687.138 349.026C693.534 349.026 699.138 350.666 703.948 353.946C708.759 357.226 712.121 361.763 714.034 367.558H700.832C699.52 364.825 697.662 362.775 695.256 361.408C692.906 360.041 690.172 359.358 687.056 359.358C683.722 359.358 680.742 360.151 678.118 361.736C675.549 363.267 673.526 365.453 672.05 368.296C670.629 371.139 669.918 374.473 669.918 378.3C669.918 382.072 670.629 385.407 672.05 388.304C673.526 391.147 675.549 393.361 678.118 394.946C680.742 396.477 683.722 397.242 687.056 397.242C690.172 397.242 692.906 396.559 695.256 395.192C697.662 393.771 699.52 391.693 700.832 388.96H714.034C712.121 394.809 708.759 399.374 703.948 402.654C699.192 405.879 693.589 407.492 687.138 407.492C681.672 407.492 676.724 406.262 672.296 403.802C667.923 401.287 664.452 397.816 661.882 393.388C659.368 388.96 658.11 383.931 658.11 378.3ZM762.79 349.764V359.03H747.538V407H736.058V359.03H720.806V349.764H762.79ZM782.646 349.764V407H771.166V349.764H782.646ZM820.556 407.574C815.199 407.574 810.279 406.317 805.796 403.802C801.314 401.287 797.76 397.816 795.136 393.388C792.512 388.905 791.2 383.849 791.2 378.218C791.2 372.642 792.512 367.64 795.136 363.212C797.76 358.729 801.314 355.231 805.796 352.716C810.279 350.201 815.199 348.944 820.556 348.944C825.968 348.944 830.888 350.201 835.316 352.716C839.799 355.231 843.325 358.729 845.894 363.212C848.518 367.64 849.83 372.642 849.83 378.218C849.83 383.849 848.518 388.905 845.894 393.388C843.325 397.816 839.799 401.287 835.316 403.802C830.834 406.317 825.914 407.574 820.556 407.574ZM820.556 397.324C824 397.324 827.034 396.559 829.658 395.028C832.282 393.443 834.332 391.201 835.808 388.304C837.284 385.407 838.022 382.045 838.022 378.218C838.022 374.391 837.284 371.057 835.808 368.214C834.332 365.317 832.282 363.103 829.658 361.572C827.034 360.041 824 359.276 820.556 359.276C817.112 359.276 814.051 360.041 811.372 361.572C808.748 363.103 806.698 365.317 805.222 368.214C803.746 371.057 803.008 374.391 803.008 378.218C803.008 382.045 803.746 385.407 805.222 388.304C806.698 391.201 808.748 393.443 811.372 395.028C814.051 396.559 817.112 397.324 820.556 397.324ZM907.325 407H895.845L869.851 367.722V407H858.371V349.682H869.851L895.845 389.042V349.682H907.325V407Z" fill="#6E5D5D"/>
<path d="M191.937 72C296.753 72 381.849 156.43 382.927 260.991C382.938 262.095 382.042 263 380.937 263H288.423C286.914 263 285.949 261.393 286.657 260.061L300.482 234.061C300.829 233.408 301.508 233 302.247 233H347.733C348.986 233 349.93 231.855 349.68 230.628C334.696 157.226 269.767 102 191.937 102L189.856 102.013C112.953 102.987 49.045 157.881 34.1949 230.628C33.9443 231.856 34.8884 233 36.1414 233H93.6009C95.1097 233 96.0751 234.607 95.3668 235.939L81.5425 261.939C81.1953 262.592 80.5161 263 79.7766 263H2.9373C1.83273 263 0.936268 262.095 0.947651 260.991C2.0253 156.43 87.1216 72.0001 191.937 72ZM165.626 261.939C165.279 262.592 164.6 263 163.861 263H120.254C118.745 263 117.78 261.393 118.488 260.061L132.313 234.061C132.66 233.408 133.339 233 134.078 233H177.685C179.194 233 180.159 234.607 179.451 235.939L165.626 261.939ZM249.711 261.939C249.364 262.592 248.685 263 247.946 263H204.338C202.829 263 201.864 261.393 202.572 260.061L216.397 234.061C216.744 233.408 217.423 233 218.162 233H261.77C263.279 233 264.244 234.607 263.536 235.939L249.711 261.939Z" fill="#6E5D5D"/>
<path d="M189.525 430.986C110.961 430.004 46.1873 374.526 31.4311 301.626C31.2407 300.686 30.417 300 29.4575 300H2.98976C1.75936 300 0.821036 301.107 1.03025 302.319C16.5758 392.414 96.0002 461 191.644 461C287.288 461 366.714 392.414 382.26 302.319C382.469 301.107 381.531 300 380.3 300H353.831C352.872 300 352.048 300.686 351.858 301.626C336.969 375.181 271.16 431 191.644 431L189.525 430.986Z" fill="#6E5D5D"/>
<path d="M27.8752 272C28.4979 272 29.0012 272.507 29.0012 273.13C29.0012 278.392 29.2772 283.604 29.8176 288.76C29.9427 289.952 29.0142 291 27.8151 291H2.34644C1.31848 291 0.455912 290.22 0.365291 289.196C-0.107114 283.858 -0.138326 280.01 0.375292 273.819C0.460707 272.789 1.32561 272 2.35873 272H27.8752Z" fill="#6E5D5D"/>
<path d="M191.937 72C296.753 72 381.849 156.43 382.927 260.991C382.938 262.095 382.042 263 380.937 263H288.423C286.914 263 285.949 261.393 286.657 260.061L300.481 234.061C300.829 233.408 301.508 233 302.247 233H347.733C348.986 233 349.93 231.855 349.68 230.628C334.696 157.226 269.767 102 191.937 102L189.856 102.013C112.953 102.987 49.045 157.881 34.1948 230.628C33.9442 231.856 34.8883 233 36.1413 233H93.6009C95.1096 233 96.0751 234.607 95.3667 235.939L81.5424 261.939C81.1952 262.592 80.516 263 79.7765 263H2.93721C1.83264 263 0.936176 262.095 0.94756 260.991C2.02521 156.43 87.1215 72.0001 191.937 72ZM165.626 261.939C165.279 262.592 164.6 263 163.86 263H120.254C118.745 263 117.78 261.393 118.488 260.061L132.312 234.061C132.66 233.408 133.339 233 134.078 233H177.685C179.194 233 180.159 234.607 179.451 235.939L165.626 261.939ZM249.711 261.939C249.364 262.592 248.685 263 247.945 263H204.338C202.829 263 201.864 261.393 202.572 260.061L216.396 234.061C216.744 233.408 217.423 233 218.162 233H261.77C263.279 233 264.244 234.607 263.536 235.939L249.711 261.939Z" fill="#6E5D5D"/>
<path d="M189.525 430.986C110.961 430.004 46.1873 374.526 31.431 301.626C31.2407 300.686 30.417 300 29.4575 300H2.98875C1.75835 300 0.820028 301.107 1.02924 302.319C16.5748 392.414 96.0001 461 191.644 461C287.288 461 366.714 392.414 382.26 302.319C382.469 301.107 381.531 300 380.3 300H353.831C352.872 300 352.048 300.686 351.858 301.626C336.969 375.181 271.16 431 191.644 431L189.525 430.986Z" fill="#6E5D5D"/>
<path d="M27.8737 272C28.4969 272 29.0007 272.508 29.0007 273.131C29.0007 278.393 29.2768 283.605 29.8172 288.76C29.9422 289.952 29.0137 291 27.8146 291H2.34595C1.31799 291 0.455424 290.22 0.364804 289.196C-0.107598 283.858 -0.138809 280.01 0.374804 273.819C0.460218 272.789 1.32512 272 2.35825 272H27.8737Z" fill="#6E5D5D"/>
</svg>
