<svg width="383" height="389" viewBox="0 0 383 389" fill="none" xmlns="http://www.w3.org/2000/svg">
<path d="M191.937 0C296.753 0 381.849 84.4299 382.927 188.991C382.938 190.095 382.042 191 380.937 191H288.423C286.914 191 285.949 189.393 286.657 188.061L300.481 162.061C300.829 161.408 301.508 161 302.247 161H347.733C348.986 161 349.93 159.855 349.68 158.628C334.696 85.2256 269.767 30 191.937 30L189.856 30.0127C112.953 30.987 49.045 85.8809 34.1949 158.628C33.9443 159.856 34.8883 161 36.1414 161H93.6009C95.1096 161 96.0751 162.607 95.3668 163.939L81.5424 189.939C81.1953 190.592 80.5161 191 79.7765 191H2.93725C1.83268 191 0.936222 190.095 0.947606 188.991C2.02525 84.43 87.1215 0.00012552 191.937 0ZM165.626 189.939C165.279 190.592 164.6 191 163.861 191H120.254C118.745 191 117.78 189.393 118.488 188.061L132.313 162.061C132.66 161.408 133.339 161 134.078 161H177.685C179.194 161 180.159 162.607 179.451 163.939L165.626 189.939ZM249.711 189.939C249.364 190.592 248.685 191 247.945 191H204.338C202.829 191 201.864 189.393 202.572 188.061L216.397 162.061C216.744 161.408 217.423 161 218.162 161H261.77C263.279 161 264.244 162.607 263.536 163.939L249.711 189.939Z" fill="#6E5D5D"/>
<path d="M189.525 358.986C110.961 358.004 46.1873 302.526 31.4311 229.626C31.2407 228.685 30.417 228 29.4575 228H2.98883C1.75843 228 0.820104 229.107 1.02931 230.319C16.5748 320.414 96.0001 389 191.644 389C287.288 389 366.714 320.414 382.26 230.319C382.469 229.107 381.531 228 380.3 228H353.832C352.872 228 352.048 228.686 351.858 229.626C336.969 303.181 271.16 359 191.644 359L189.525 358.986Z" fill="#6E5D5D"/>
<path d="M27.8738 200C28.497 200 29.0007 200.508 29.0007 201.131V201.131C29.0008 206.393 29.2768 211.605 29.8172 216.76C29.9422 217.952 29.0137 219 27.8146 219H2.34598C1.31802 219 0.455454 218.22 0.364834 217.196C-0.107567 211.858 -0.138779 208.01 0.374835 201.819C0.460249 200.789 1.32515 200 2.35828 200H27.8738Z" fill="#6E5D5D"/>
</svg>
