<svg width="1080" height="1080" viewBox="0 0 1080 1080" fill="none" xmlns="http://www.w3.org/2000/svg">
<rect width="1080" height="1080" fill="white"/>
<path d="M570.68 399.8C584.547 399.8 596.707 402.467 607.16 407.8C617.827 413.133 626.147 421.24 632.12 432.12C638.093 443 641.08 456.76 641.08 473.4V571H610.36V476.92C610.36 460.493 606.307 448.12 598.2 439.8C590.307 431.48 579.107 427.32 564.6 427.32C553.72 427.32 544.227 429.453 536.12 433.72C528.013 437.987 521.72 444.28 517.24 452.6C512.973 460.92 510.84 471.267 510.84 483.64V571H480.12V401.4H509.56V447.16L504.76 435C510.307 423.907 518.84 415.267 530.36 409.08C541.88 402.893 555.32 399.8 570.68 399.8ZM803.213 571V535.16L801.613 528.44V467.32C801.613 454.307 797.773 444.28 790.093 437.24C782.626 429.987 771.319 426.36 756.173 426.36C746.146 426.36 736.333 428.067 726.733 431.48C717.133 434.68 709.026 439.053 702.413 444.6L689.613 421.56C698.359 414.52 708.813 409.187 720.973 405.56C733.346 401.72 746.253 399.8 759.693 399.8C782.946 399.8 800.866 405.453 813.453 416.76C826.039 428.067 832.333 445.347 832.333 468.6V571H803.213ZM747.533 572.92C734.946 572.92 723.853 570.787 714.253 566.52C704.866 562.253 697.613 556.387 692.493 548.92C687.373 541.24 684.813 532.6 684.813 523C684.813 513.827 686.946 505.507 691.213 498.04C695.693 490.573 702.839 484.6 712.653 480.12C722.679 475.64 736.119 473.4 752.973 473.4H806.733V495.48H754.253C738.893 495.48 728.546 498.04 723.213 503.16C717.879 508.28 715.213 514.467 715.213 521.72C715.213 530.04 718.519 536.76 725.133 541.88C731.746 546.787 740.919 549.24 752.653 549.24C764.173 549.24 774.199 546.68 782.733 541.56C791.479 536.44 797.773 528.973 801.613 519.16L807.693 540.28C803.639 550.307 796.493 558.307 786.253 564.28C776.013 570.04 763.106 572.92 747.533 572.92ZM893.663 571V386.36C893.663 369.72 898.463 356.493 908.063 346.68C917.876 336.653 931.743 331.64 949.663 331.64C956.276 331.64 962.569 332.493 968.543 334.2C974.729 335.693 979.956 338.147 984.223 341.56L974.943 364.92C971.743 362.36 968.116 360.44 964.063 359.16C960.009 357.667 955.743 356.92 951.263 356.92C942.303 356.92 935.476 359.48 930.783 364.6C926.089 369.507 923.743 376.867 923.743 386.68V409.4L924.383 423.48V571H893.663ZM864.863 426.68V401.4H973.023V426.68H864.863Z" fill="#6E5D5D"/>
<path d="M464.87 639.3C464.87 633.669 466.127 628.64 468.642 624.212C471.211 619.729 474.683 616.258 479.056 613.798C483.484 611.283 488.431 610.026 493.898 610.026C500.294 610.026 505.897 611.666 510.708 614.946C515.519 618.226 518.881 622.763 520.794 628.558H507.592C506.28 625.825 504.421 623.775 502.016 622.408C499.665 621.041 496.932 620.358 493.816 620.358C490.481 620.358 487.502 621.151 484.878 622.736C482.309 624.267 480.286 626.453 478.81 629.296C477.389 632.139 476.678 635.473 476.678 639.3C476.678 643.072 477.389 646.407 478.81 649.304C480.286 652.147 482.309 654.361 484.878 655.946C487.502 657.477 490.481 658.242 493.816 658.242C496.932 658.242 499.665 657.559 502.016 656.192C504.421 654.771 506.28 652.693 507.592 649.96H520.794C518.881 655.809 515.519 660.374 510.708 663.654C505.952 666.879 500.349 668.492 493.898 668.492C488.431 668.492 483.484 667.262 479.056 664.802C474.683 662.287 471.211 658.816 468.642 654.388C466.127 649.96 464.87 644.931 464.87 639.3ZM557.167 668.574C551.81 668.574 546.89 667.317 542.407 664.802C537.925 662.287 534.371 658.816 531.747 654.388C529.123 649.905 527.811 644.849 527.811 639.218C527.811 633.642 529.123 628.64 531.747 624.212C534.371 619.729 537.925 616.231 542.407 613.716C546.89 611.201 551.81 609.944 557.167 609.944C562.579 609.944 567.499 611.201 571.927 613.716C576.41 616.231 579.936 619.729 582.505 624.212C585.129 628.64 586.441 633.642 586.441 639.218C586.441 644.849 585.129 649.905 582.505 654.388C579.936 658.816 576.41 662.287 571.927 664.802C567.445 667.317 562.525 668.574 557.167 668.574ZM557.167 658.324C560.611 658.324 563.645 657.559 566.269 656.028C568.893 654.443 570.943 652.201 572.419 649.304C573.895 646.407 574.633 643.045 574.633 639.218C574.633 635.391 573.895 632.057 572.419 629.214C570.943 626.317 568.893 624.103 566.269 622.572C563.645 621.041 560.611 620.276 557.167 620.276C553.723 620.276 550.662 621.041 547.983 622.572C545.359 624.103 543.309 626.317 541.833 629.214C540.357 632.057 539.619 635.391 539.619 639.218C539.619 643.045 540.357 646.407 541.833 649.304C543.309 652.201 545.359 654.443 547.983 656.028C550.662 657.559 553.723 658.324 557.167 658.324ZM606.462 658.898H625.322V668H594.982V610.764H606.462V658.898ZM644.099 658.898H662.959V668H632.619V610.764H644.099V658.898ZM681.736 620.03V634.38H701.006V643.482H681.736V658.652H703.466V668H670.256V610.682H703.466V620.03H681.736ZM711.11 639.3C711.11 633.669 712.368 628.64 714.882 624.212C717.452 619.729 720.923 616.258 725.296 613.798C729.724 611.283 734.672 610.026 740.138 610.026C746.534 610.026 752.138 611.666 756.948 614.946C761.759 618.226 765.121 622.763 767.034 628.558H753.832C752.52 625.825 750.662 623.775 748.256 622.408C745.906 621.041 743.172 620.358 740.056 620.358C736.722 620.358 733.742 621.151 731.118 622.736C728.549 624.267 726.526 626.453 725.05 629.296C723.629 632.139 722.918 635.473 722.918 639.3C722.918 643.072 723.629 646.407 725.05 649.304C726.526 652.147 728.549 654.361 731.118 655.946C733.742 657.477 736.722 658.242 740.056 658.242C743.172 658.242 745.906 657.559 748.256 656.192C750.662 654.771 752.52 652.693 753.832 649.96H767.034C765.121 655.809 761.759 660.374 756.948 663.654C752.192 666.879 746.589 668.492 740.138 668.492C734.672 668.492 729.724 667.262 725.296 664.802C720.923 662.287 717.452 658.816 714.882 654.388C712.368 649.96 711.11 644.931 711.11 639.3ZM815.79 610.764V620.03H800.538V668H789.058V620.03H773.806V610.764H815.79ZM835.646 610.764V668H824.166V610.764H835.646ZM873.556 668.574C868.199 668.574 863.279 667.317 858.796 664.802C854.313 662.287 850.76 658.816 848.136 654.388C845.512 649.905 844.2 644.849 844.2 639.218C844.2 633.642 845.512 628.64 848.136 624.212C850.76 619.729 854.313 616.231 858.796 613.716C863.279 611.201 868.199 609.944 873.556 609.944C878.968 609.944 883.888 611.201 888.316 613.716C892.799 616.231 896.325 619.729 898.894 624.212C901.518 628.64 902.83 633.642 902.83 639.218C902.83 644.849 901.518 649.905 898.894 654.388C896.325 658.816 892.799 662.287 888.316 664.802C883.833 667.317 878.913 668.574 873.556 668.574ZM873.556 658.324C877 658.324 880.034 657.559 882.658 656.028C885.282 654.443 887.332 652.201 888.808 649.304C890.284 646.407 891.022 643.045 891.022 639.218C891.022 635.391 890.284 632.057 888.808 629.214C887.332 626.317 885.282 624.103 882.658 622.572C880.034 621.041 877 620.276 873.556 620.276C870.112 620.276 867.051 621.041 864.372 622.572C861.748 624.103 859.698 626.317 858.222 629.214C856.746 632.057 856.008 635.391 856.008 639.218C856.008 643.045 856.746 646.407 858.222 649.304C859.698 652.201 861.748 654.443 864.372 656.028C867.051 657.559 870.112 658.324 873.556 658.324ZM960.325 668H948.845L922.851 628.722V668H911.371V610.682H922.851L948.845 650.042V610.682H960.325V668Z" fill="#6E5D5D"/>
<path d="M244.938 333C349.753 333 434.849 417.43 435.927 521.991C435.939 523.095 435.042 524 433.938 524H341.422C339.914 524 338.948 522.393 339.656 521.061L353.481 495.061C353.828 494.408 354.507 494 355.247 494H400.733C401.986 494 402.93 492.855 402.68 491.628C387.696 418.226 322.767 363 244.938 363L242.856 363.013C165.953 363.987 102.045 418.881 87.1951 491.628C86.9445 492.856 87.8886 494 89.1416 494H146.601C148.11 494 149.075 495.607 148.367 496.939L134.543 522.939C134.196 523.592 133.516 524 132.777 524H55.9375C54.8329 524 53.9365 523.095 53.9478 521.991C55.0255 417.43 140.122 333 244.938 333ZM218.627 522.939C218.279 523.592 217.6 524 216.861 524H173.254C171.746 524 170.78 522.393 171.488 521.061L185.312 495.061C185.659 494.408 186.338 494 187.078 494H230.685C232.194 494 233.159 495.607 232.451 496.939L218.627 522.939ZM302.712 522.939C302.364 523.592 301.685 524 300.946 524H257.337C255.829 524 254.863 522.393 255.571 521.061L269.396 495.061C269.743 494.408 270.422 494 271.162 494H314.77C316.279 494 317.244 495.607 316.536 496.939L302.712 522.939Z" fill="#6E5D5D"/>
<path d="M242.525 691.986C163.961 691.005 99.1876 635.526 84.4313 562.626C84.241 561.685 83.4173 561 82.4578 561H55.9891C54.7587 561 53.8203 562.107 54.0296 563.319C69.5751 653.414 149 722 244.644 722C340.289 722 419.714 653.414 435.26 563.319C435.469 562.107 434.531 561 433.3 561H406.832C405.872 561 405.049 561.686 404.858 562.626C389.969 636.181 324.161 692 244.644 692L242.525 691.986Z" fill="#6E5D5D"/>
<path d="M80.8747 533C81.4974 533 82.0007 533.507 82.0007 534.13V534.13C82.0007 539.392 82.2768 544.605 82.8172 549.76C82.9422 550.952 82.0137 552 80.8146 552H55.346C54.318 552 53.4555 551.22 53.3648 550.196C52.8924 544.858 52.8612 541.01 53.3748 534.819C53.4602 533.789 54.3252 533 55.3583 533H80.8747Z" fill="#6E5D5D"/>
</svg>
